<svg xmlns="http://www.w3.org/2000/svg" width="1440" height="767" viewBox="0 0 1440 767">
    <g fill="none" fill-rule="evenodd">
        <path fill="#FFF" fill-rule="nonzero" d="M0 416V0h1440v416z"/>
        <path fill="#F96843" d="M514.727 174.538h-21.343l-85.373 170.086-32.015 31.892h-32.015l-32.014-31.892-32.015-74.412-32.015 74.412-32.015 31.892h-42.686l-32.015-31.892-64.03-170.086H45.176v-74.413h170.746v74.413H194.58l32.015 85.043 32.015-63.782-10.672-21.261h-10.672v-74.413h138.731v74.413h-21.343l32.015 85.043 32.015-85.043H397.34v-74.413h117.387v74.413zm192.09 201.978H536.07v-74.413h32.015V174.538H536.07v-74.413h170.746v74.413h-32.015v127.565h32.015v74.413zm373.505-201.978h-32.014v180.717l-21.344 21.26h-64.03l-32.014-31.89-85.373-106.305v63.783h32.015v74.413H738.83v-74.413h32.015V174.538H738.83v-74.413h117.388l32.014 21.26 85.373 116.935v-63.782h-32.015v-74.413h138.731v74.413zm320.149 106.304h-32.015v95.674h-64.03l-21.343-31.892-21.343 31.892h-96.045l-74.701-74.413V174.538l74.701-74.413h85.373l21.343 21.26 21.344-21.26h74.7v106.304h-96.044v-31.891h-64.03v127.565h64.03v-21.261h-32.015V227.69h160.075v53.152z"/>
        <path fill="#FFF" d="M271.059 716.11L214.589 767l-50.824-50.89h-96L0 648.254v-124.4L67.765 456H192l67.765 67.855v124.4l-28.236 28.272 39.53 39.582zM152.47 648.254v-124.4h-45.177v124.4h45.177zm412.235-124.4h-22.588v135.709l-56.47 56.545H355.764l-56.47-56.545v-135.71h-28.236V456h152.47v67.855h-22.588v124.4h62.118v-124.4H440.47V456h124.235v67.855zM864 687.836l-28.235 28.273h-248.47v-67.854h28.234v-124.4h-28.235V456h248.47L864 489.927v84.818h-79.059v-50.89h-67.765v39.581H768v45.237h-50.824v39.582h67.765v-50.891H864v90.472zm271.059-28.272l-50.824 56.545H976.941L960 693.491l-22.588 22.618h-50.824v-79.164H960v22.619h62.118v-39.582h-90.353L886.588 580.4v-67.855L937.412 456h90.353l22.588 22.618L1067.294 456h50.824v79.164h-67.765v-22.619h-50.824v39.582h84.706l50.824 50.891v56.546zM1440 574.745h-67.765v-50.89h-22.588v124.4h22.588v67.854h-158.117v-67.854h28.235v-124.4h-22.588v50.89H1152v-90.472L1180.235 456h231.53L1440 484.273v90.472z"/>
    </g>
</svg>
